<svg xmlns="http://www.w3.org/2000/svg" xmlns:xlink="http://www.w3.org/1999/xlink" width="200" zoomAndPan="magnify" viewBox="0 0 150 37.5" height="50" preserveAspectRatio="xMidYMid meet" version="1.0"><defs><g/><clipPath id="e947592d24"><path d="M 38 11 L 55.296875 11 L 55.296875 26 L 38 26 Z M 38 11 " clip-rule="nonzero"/></clipPath><clipPath id="879eadc251"><path d="M 32 2.714844 L 47 2.714844 L 47 17 L 32 17 Z M 32 2.714844 " clip-rule="nonzero"/></clipPath><clipPath id="efc46ff535"><path d="M 23 2.714844 L 38 2.714844 L 38 17 L 23 17 Z M 23 2.714844 " clip-rule="nonzero"/></clipPath><clipPath id="6da2f2b53f"><path d="M 32 20 L 47 20 L 47 34.539062 L 32 34.539062 Z M 32 20 " clip-rule="nonzero"/></clipPath><clipPath id="4dcd8c6588"><path d="M 23 20 L 38 20 L 38 34.539062 L 23 34.539062 Z M 23 20 " clip-rule="nonzero"/></clipPath></defs><g clip-path="url(#e947592d24)"><path fill="#ffffff" d="M 50.488281 18.476562 L 48.421875 16.410156 L 46.355469 18.476562 L 48.421875 20.542969 Z M 48.421875 11.601562 C 48.542969 11.601562 48.664062 11.648438 48.757812 11.742188 L 55.15625 18.144531 C 55.246094 18.230469 55.296875 18.351562 55.296875 18.476562 C 55.296875 18.601562 55.246094 18.722656 55.15625 18.8125 L 48.757812 25.214844 C 48.570312 25.398438 48.273438 25.398438 48.085938 25.214844 L 43.851562 20.980469 L 43.804688 21.027344 C 43.621094 21.214844 43.320312 21.214844 43.136719 21.027344 C 42.949219 20.84375 42.949219 20.542969 43.136719 20.359375 L 48.085938 15.40625 C 48.273438 15.222656 48.570312 15.222656 48.757812 15.40625 L 51.492188 18.144531 C 51.582031 18.230469 51.628906 18.351562 51.628906 18.476562 C 51.628906 18.601562 51.582031 18.722656 51.492188 18.8125 L 48.757812 21.546875 C 48.570312 21.730469 48.273438 21.730469 48.085938 21.546875 L 45.6875 19.144531 L 44.523438 20.308594 L 48.421875 24.210938 L 54.15625 18.476562 L 48.421875 12.746094 L 39.621094 21.546875 C 39.433594 21.730469 39.136719 21.730469 38.953125 21.546875 C 38.765625 21.359375 38.765625 21.0625 38.953125 20.878906 L 48.085938 11.742188 C 48.179688 11.648438 48.300781 11.601562 48.421875 11.601562 " fill-opacity="1" fill-rule="nonzero"/></g><g clip-path="url(#879eadc251)"><path fill="#ffffff" d="M 34.71875 10.699219 C 34.839844 10.699219 34.960938 10.746094 35.050781 10.835938 L 39.621094 15.40625 C 39.804688 15.589844 39.804688 15.890625 39.621094 16.074219 C 39.4375 16.257812 39.136719 16.257812 38.953125 16.074219 L 34.382812 11.507812 C 34.199219 11.320312 34.199219 11.023438 34.382812 10.835938 C 34.476562 10.746094 34.597656 10.699219 34.71875 10.699219 Z M 41.351562 9.339844 L 39.285156 7.273438 L 37.21875 9.339844 L 39.285156 11.40625 Z M 39.285156 6.128906 C 39.410156 6.128906 39.53125 6.179688 39.621094 6.269531 L 42.355469 9.003906 C 42.539062 9.1875 42.539062 9.488281 42.355469 9.671875 L 39.621094 12.410156 C 39.441406 12.585938 39.128906 12.585938 38.953125 12.410156 L 36.214844 9.671875 C 36.03125 9.488281 36.03125 9.1875 36.214844 9.003906 L 38.953125 6.269531 C 39.039062 6.179688 39.160156 6.128906 39.285156 6.128906 Z M 39.285156 2.464844 C 39.410156 2.464844 39.53125 2.511719 39.621094 2.601562 L 46.023438 9.003906 C 46.207031 9.1875 46.207031 9.488281 46.023438 9.671875 L 41.457031 14.242188 C 41.273438 14.425781 40.972656 14.425781 40.789062 14.242188 C 40.601562 14.054688 40.601562 13.757812 40.789062 13.570312 L 45.019531 9.339844 L 39.285156 3.605469 L 33.21875 9.671875 C 33.035156 9.859375 32.734375 9.859375 32.550781 9.671875 C 32.363281 9.488281 32.363281 9.1875 32.550781 9.003906 L 38.953125 2.601562 C 39.039062 2.511719 39.160156 2.464844 39.285156 2.464844 " fill-opacity="1" fill-rule="nonzero"/></g><path fill="#ffffff" d="M 34.714844 19.835938 C 34.835938 19.835938 34.957031 19.882812 35.050781 19.972656 L 39.621094 24.542969 C 39.804688 24.730469 39.804688 25.027344 39.621094 25.214844 C 39.4375 25.398438 39.136719 25.398438 38.953125 25.214844 L 34.382812 20.640625 C 34.195312 20.457031 34.195312 20.15625 34.382812 19.972656 C 34.472656 19.882812 34.59375 19.835938 34.714844 19.835938 Z M 45.6875 18.003906 C 45.808594 18.003906 45.929688 18.050781 46.023438 18.140625 C 46.207031 18.328125 46.207031 18.625 46.023438 18.8125 L 41.453125 23.382812 C 41.269531 23.566406 40.96875 23.566406 40.785156 23.382812 C 40.597656 23.195312 40.597656 22.898438 40.785156 22.710938 L 45.355469 18.140625 C 45.445312 18.050781 45.566406 18.003906 45.6875 18.003906 Z M 41.355469 18.476562 L 39.285156 16.410156 L 37.21875 18.476562 L 39.285156 20.542969 Z M 39.285156 15.269531 C 39.40625 15.269531 39.527344 15.3125 39.621094 15.40625 L 42.355469 18.140625 C 42.445312 18.230469 42.496094 18.351562 42.496094 18.476562 C 42.496094 18.601562 42.445312 18.722656 42.355469 18.8125 L 39.621094 21.546875 C 39.4375 21.730469 39.136719 21.730469 38.953125 21.546875 L 36.214844 18.8125 C 36.03125 18.625 36.03125 18.328125 36.214844 18.140625 L 38.953125 15.40625 C 39.042969 15.3125 39.164062 15.269531 39.285156 15.269531 Z M 37.457031 13.433594 C 37.578125 13.433594 37.699219 13.480469 37.789062 13.570312 C 37.976562 13.757812 37.976562 14.054688 37.789062 14.242188 L 33.21875 18.8125 C 33.035156 18.996094 32.734375 18.996094 32.550781 18.8125 C 32.367188 18.625 32.367188 18.328125 32.550781 18.140625 L 37.121094 13.570312 C 37.214844 13.480469 37.335938 13.433594 37.457031 13.433594 Z M 39.285156 11.601562 C 39.40625 11.601562 39.527344 11.648438 39.621094 11.742188 L 44.1875 16.308594 C 44.371094 16.492188 44.371094 16.792969 44.1875 16.976562 C 44.003906 17.160156 43.703125 17.160156 43.519531 16.976562 L 38.953125 12.410156 C 38.765625 12.226562 38.765625 11.925781 38.953125 11.742188 C 39.042969 11.648438 39.164062 11.601562 39.285156 11.601562 " fill-opacity="1" fill-rule="nonzero"/><path fill="#ffffff" d="M 39.285156 15.269531 C 39.40625 15.269531 39.527344 15.3125 39.621094 15.40625 C 39.804688 15.589844 39.804688 15.890625 39.621094 16.074219 L 35.054688 20.640625 C 34.871094 20.828125 34.570312 20.828125 34.386719 20.640625 C 34.199219 20.457031 34.199219 20.15625 34.386719 19.972656 L 38.953125 15.40625 C 39.042969 15.3125 39.164062 15.269531 39.285156 15.269531 Z M 36.785156 13.90625 L 34.71875 11.839844 L 32.652344 13.90625 L 34.71875 15.972656 Z M 34.71875 10.699219 C 34.839844 10.699219 34.960938 10.742188 35.054688 10.835938 L 37.789062 13.570312 C 37.878906 13.660156 37.929688 13.78125 37.929688 13.90625 C 37.929688 14.03125 37.878906 14.152344 37.789062 14.242188 L 35.054688 16.976562 C 34.964844 17.066406 34.84375 17.113281 34.71875 17.113281 C 34.59375 17.113281 34.472656 17.066406 34.386719 16.976562 L 31.648438 14.242188 C 31.464844 14.054688 31.464844 13.757812 31.648438 13.570312 L 34.386719 10.835938 C 34.476562 10.742188 34.597656 10.699219 34.71875 10.699219 Z M 36.550781 8.863281 C 36.671875 8.863281 36.792969 8.910156 36.886719 9.003906 L 39.847656 11.964844 C 40.035156 12.148438 40.035156 12.449219 39.847656 12.632812 C 39.664062 12.816406 39.363281 12.816406 39.179688 12.632812 L 36.21875 9.671875 C 36.03125 9.488281 36.03125 9.1875 36.21875 9.003906 C 36.308594 8.910156 36.429688 8.863281 36.550781 8.863281 Z M 34.71875 7.03125 C 34.839844 7.03125 34.960938 7.078125 35.054688 7.171875 C 35.238281 7.355469 35.238281 7.652344 35.054688 7.839844 L 30.566406 12.328125 C 30.378906 12.511719 30.082031 12.511719 29.894531 12.328125 C 29.710938 12.144531 29.710938 11.84375 29.894531 11.660156 L 34.386719 7.171875 C 34.476562 7.078125 34.597656 7.03125 34.71875 7.03125 " fill-opacity="1" fill-rule="nonzero"/><g clip-path="url(#efc46ff535)"><path fill="#ffffff" d="M 32.214844 9.339844 L 30.148438 7.273438 L 28.082031 9.339844 L 30.148438 11.40625 Z M 30.148438 6.132812 C 30.269531 6.132812 30.390625 6.175781 30.484375 6.269531 L 33.21875 9.003906 C 33.40625 9.191406 33.40625 9.488281 33.21875 9.671875 L 30.820312 12.074219 L 31.984375 13.238281 L 36.21875 9.003906 C 36.402344 8.820312 36.699219 8.820312 36.886719 9.003906 C 37.070312 9.191406 37.070312 9.488281 36.886719 9.671875 L 32.320312 14.242188 C 32.296875 14.265625 32.269531 14.285156 32.242188 14.300781 C 32.058594 14.425781 31.808594 14.402344 31.648438 14.242188 L 27.078125 9.671875 C 26.992188 9.585938 26.941406 9.464844 26.941406 9.339844 C 26.941406 9.214844 26.992188 9.09375 27.078125 9.003906 L 29.816406 6.269531 C 29.90625 6.175781 30.027344 6.132812 30.148438 6.132812 Z M 30.148438 2.464844 C 30.269531 2.464844 30.390625 2.511719 30.484375 2.601562 L 35.050781 7.171875 C 35.238281 7.355469 35.238281 7.65625 35.050781 7.839844 C 34.867188 8.023438 34.566406 8.023438 34.382812 7.839844 L 30.148438 3.605469 L 24.417969 9.339844 L 30.484375 15.40625 C 30.667969 15.589844 30.667969 15.890625 30.484375 16.074219 C 30.300781 16.261719 30 16.261719 29.816406 16.074219 L 23.414062 9.671875 C 23.324219 9.585938 23.273438 9.464844 23.273438 9.339844 C 23.273438 9.214844 23.324219 9.09375 23.414062 9.003906 L 29.816406 2.601562 C 29.90625 2.511719 30.027344 2.464844 30.148438 2.464844 " fill-opacity="1" fill-rule="nonzero"/></g><g clip-path="url(#6da2f2b53f)"><path fill="#ffffff" d="M 34.714844 25.304688 C 34.835938 25.304688 34.957031 25.351562 35.050781 25.445312 C 35.234375 25.628906 35.234375 25.929688 35.050781 26.113281 L 33.214844 27.949219 C 33.03125 28.132812 32.730469 28.132812 32.546875 27.949219 C 32.363281 27.765625 32.363281 27.464844 32.546875 27.28125 L 34.382812 25.445312 C 34.472656 25.351562 34.59375 25.304688 34.714844 25.304688 Z M 41.351562 27.613281 L 39.28125 25.546875 L 37.214844 27.613281 L 39.28125 29.679688 Z M 39.28125 24.40625 C 39.410156 24.40625 39.527344 24.453125 39.617188 24.542969 L 42.351562 27.28125 C 42.539062 27.464844 42.539062 27.765625 42.351562 27.949219 L 39.617188 30.683594 C 39.441406 30.863281 39.125 30.863281 38.949219 30.683594 L 36.214844 27.949219 C 36.027344 27.765625 36.027344 27.464844 36.214844 27.28125 L 38.949219 24.542969 C 39.039062 24.453125 39.15625 24.40625 39.28125 24.40625 Z M 39.28125 20.738281 C 39.402344 20.738281 39.523438 20.785156 39.617188 20.878906 L 46.019531 27.28125 C 46.109375 27.367188 46.15625 27.488281 46.15625 27.613281 C 46.15625 27.738281 46.109375 27.859375 46.019531 27.949219 L 39.617188 34.351562 C 39.433594 34.535156 39.132812 34.535156 38.949219 34.351562 L 34.378906 29.78125 C 34.195312 29.597656 34.195312 29.296875 34.378906 29.113281 C 34.5625 28.925781 34.863281 28.925781 35.046875 29.113281 L 39.28125 33.347656 L 45.015625 27.613281 L 38.949219 21.546875 C 38.765625 21.363281 38.765625 21.0625 38.949219 20.878906 C 39.039062 20.785156 39.160156 20.738281 39.28125 20.738281 " fill-opacity="1" fill-rule="nonzero"/></g><path fill="#ffffff" d="M 39.285156 24.402344 C 39.40625 24.402344 39.527344 24.449219 39.617188 24.542969 C 39.804688 24.726562 39.804688 25.027344 39.617188 25.210938 L 35.050781 29.777344 C 34.867188 29.964844 34.566406 29.964844 34.382812 29.777344 C 34.195312 29.59375 34.195312 29.296875 34.382812 29.109375 L 38.949219 24.542969 C 39.042969 24.449219 39.164062 24.402344 39.285156 24.402344 Z M 36.78125 23.042969 L 34.714844 20.976562 L 32.648438 23.042969 L 34.714844 25.109375 Z M 34.714844 19.835938 C 34.835938 19.835938 34.957031 19.878906 35.050781 19.972656 L 37.785156 22.707031 C 37.972656 22.894531 37.972656 23.191406 37.785156 23.378906 L 35.050781 26.113281 C 34.875 26.289062 34.558594 26.289062 34.382812 26.113281 L 31.644531 23.378906 C 31.460938 23.191406 31.460938 22.894531 31.644531 22.707031 L 34.382812 19.972656 C 34.472656 19.878906 34.59375 19.835938 34.714844 19.835938 " fill-opacity="1" fill-rule="nonzero"/><path fill="#ffffff" d="M 25.570312 19.828125 C 25.691406 19.828125 25.8125 19.875 25.902344 19.96875 L 30.480469 24.542969 C 30.664062 24.730469 30.664062 25.027344 30.480469 25.214844 C 30.296875 25.398438 29.996094 25.398438 29.8125 25.214844 L 25.234375 20.636719 C 25.050781 20.453125 25.050781 20.152344 25.234375 19.96875 C 25.328125 19.875 25.449219 19.828125 25.570312 19.828125 Z M 32.210938 18.476562 L 30.144531 16.410156 L 28.078125 18.476562 L 30.144531 20.542969 Z M 30.144531 15.269531 C 30.265625 15.269531 30.386719 15.3125 30.480469 15.40625 L 33.214844 18.140625 C 33.402344 18.328125 33.402344 18.625 33.214844 18.8125 L 30.480469 21.546875 C 30.304688 21.722656 29.988281 21.722656 29.8125 21.546875 L 27.074219 18.8125 C 26.988281 18.722656 26.9375 18.601562 26.9375 18.476562 C 26.9375 18.351562 26.988281 18.230469 27.074219 18.140625 L 29.8125 15.40625 C 29.902344 15.3125 30.023438 15.269531 30.144531 15.269531 Z M 28.316406 13.429688 C 28.4375 13.429688 28.558594 13.476562 28.652344 13.570312 C 28.835938 13.753906 28.835938 14.054688 28.652344 14.238281 L 24.078125 18.8125 C 23.894531 18.996094 23.59375 18.996094 23.410156 18.8125 C 23.226562 18.625 23.226562 18.328125 23.410156 18.140625 L 27.980469 13.570312 C 28.074219 13.476562 28.195312 13.429688 28.316406 13.429688 Z M 30.144531 11.601562 C 30.265625 11.601562 30.386719 11.648438 30.480469 11.742188 L 35.050781 16.3125 C 35.234375 16.496094 35.234375 16.796875 35.050781 16.980469 C 34.867188 17.164062 34.566406 17.164062 34.382812 16.980469 L 29.8125 12.410156 C 29.625 12.222656 29.625 11.925781 29.8125 11.742188 C 29.902344 11.648438 30.023438 11.601562 30.144531 11.601562 " fill-opacity="1" fill-rule="nonzero"/><g clip-path="url(#4dcd8c6588)"><path fill="#ffffff" d="M 32.207031 27.605469 L 30.140625 25.535156 L 28.074219 27.605469 L 30.140625 29.671875 Z M 30.140625 24.394531 C 30.265625 24.394531 30.386719 24.445312 30.472656 24.535156 L 33.210938 27.269531 C 33.394531 27.453125 33.394531 27.753906 33.210938 27.9375 L 30.472656 30.671875 C 30.296875 30.851562 29.984375 30.851562 29.804688 30.671875 L 27.070312 27.9375 C 26.886719 27.753906 26.886719 27.453125 27.070312 27.269531 L 29.804688 24.535156 C 29.894531 24.445312 30.015625 24.394531 30.140625 24.394531 Z M 28.304688 22.5625 C 28.425781 22.5625 28.546875 22.609375 28.640625 22.699219 C 28.824219 22.886719 28.824219 23.183594 28.640625 23.371094 L 24.40625 27.605469 L 30.140625 33.335938 L 36.207031 27.269531 C 36.390625 27.085938 36.691406 27.085938 36.875 27.269531 C 37.058594 27.453125 37.058594 27.753906 36.875 27.9375 L 30.472656 34.339844 C 30.296875 34.515625 29.984375 34.515625 29.804688 34.339844 L 23.402344 27.9375 C 23.316406 27.847656 23.265625 27.730469 23.265625 27.605469 C 23.265625 27.476562 23.316406 27.359375 23.402344 27.269531 L 27.972656 22.699219 C 28.066406 22.609375 28.1875 22.5625 28.304688 22.5625 Z M 30.140625 20.730469 C 30.261719 20.730469 30.382812 20.773438 30.472656 20.867188 L 35.050781 25.445312 C 35.234375 25.628906 35.234375 25.929688 35.050781 26.113281 C 34.867188 26.296875 34.566406 26.296875 34.382812 26.113281 L 29.804688 21.535156 C 29.621094 21.351562 29.621094 21.050781 29.804688 20.867188 C 29.898438 20.773438 30.019531 20.730469 30.140625 20.730469 " fill-opacity="1" fill-rule="nonzero"/></g><path fill="#ffffff" d="M 23.070312 18.464844 L 21.003906 16.398438 L 18.9375 18.464844 L 21.003906 20.53125 Z M 21.003906 15.257812 C 21.125 15.257812 21.246094 15.304688 21.335938 15.394531 L 24.074219 18.132812 C 24.160156 18.21875 24.210938 18.339844 24.210938 18.464844 C 24.210938 18.589844 24.160156 18.710938 24.074219 18.800781 L 21.335938 21.535156 C 21.152344 21.722656 20.851562 21.722656 20.667969 21.535156 L 17.933594 18.800781 C 17.746094 18.617188 17.746094 18.316406 17.933594 18.132812 L 20.667969 15.394531 C 20.761719 15.304688 20.882812 15.257812 21.003906 15.257812 Z M 21.003906 11.589844 C 21.125 11.589844 21.246094 11.636719 21.335938 11.730469 L 25.914062 16.308594 C 26.097656 16.492188 26.097656 16.789062 25.914062 16.976562 C 25.730469 17.160156 25.429688 17.160156 25.246094 16.976562 L 21.003906 12.734375 L 15.269531 18.464844 L 21.003906 24.199219 L 27.4375 17.765625 C 27.621094 17.578125 27.921875 17.578125 28.105469 17.765625 C 28.289062 17.949219 28.289062 18.25 28.105469 18.433594 L 21.335938 25.203125 C 21.246094 25.289062 21.128906 25.339844 21.003906 25.339844 C 20.875 25.339844 20.757812 25.289062 20.667969 25.203125 L 14.265625 18.800781 C 14.082031 18.617188 14.082031 18.316406 14.265625 18.132812 L 20.667969 11.730469 C 20.761719 11.636719 20.882812 11.589844 21.003906 11.589844 " fill-opacity="1" fill-rule="nonzero"/><g fill="#ffffff" fill-opacity="1"><g transform="translate(60.979599, 25.079655)"><g><path d="M 6.78125 0.21875 C 5.59375 0.21875 4.519531 -0.0195312 3.5625 -0.5 C 2.601562 -0.988281 1.835938 -1.710938 1.265625 -2.671875 C 0.703125 -3.640625 0.421875 -4.84375 0.421875 -6.28125 C 0.441406 -7.695312 0.726562 -8.898438 1.28125 -9.890625 C 1.84375 -10.878906 2.601562 -11.628906 3.5625 -12.140625 C 4.519531 -12.648438 5.613281 -12.90625 6.84375 -12.90625 C 8.019531 -12.90625 9.019531 -12.695312 9.84375 -12.28125 C 10.664062 -11.863281 11.328125 -11.289062 11.828125 -10.5625 C 12.335938 -9.84375 12.664062 -9.035156 12.8125 -8.140625 L 10.453125 -8.140625 C 10.347656 -8.796875 10.101562 -9.316406 9.71875 -9.703125 C 9.332031 -10.085938 8.882812 -10.359375 8.375 -10.515625 C 7.863281 -10.671875 7.351562 -10.75 6.84375 -10.75 C 5.507812 -10.75 4.484375 -10.375 3.765625 -9.625 C 3.054688 -8.875 2.703125 -7.8125 2.703125 -6.4375 C 2.703125 -4.988281 3.050781 -3.875 3.75 -3.09375 C 4.445312 -2.3125 5.460938 -1.921875 6.796875 -1.921875 C 7.359375 -1.921875 7.898438 -2.003906 8.421875 -2.171875 C 8.953125 -2.347656 9.40625 -2.632812 9.78125 -3.03125 C 10.15625 -3.425781 10.394531 -3.960938 10.5 -4.640625 L 12.890625 -4.640625 C 12.722656 -3.710938 12.382812 -2.882812 11.875 -2.15625 C 11.375 -1.425781 10.695312 -0.847656 9.84375 -0.421875 C 9 0.00390625 7.976562 0.21875 6.78125 0.21875 Z M 6.78125 0.21875 "/></g></g></g><g fill="#ffffff" fill-opacity="1"><g transform="translate(74.543092, 25.079655)"><g><path d="M 0.953125 0 L 0.953125 -9.265625 L 3.09375 -9.265625 L 3.25 -6.6875 C 3.332031 -7.082031 3.503906 -7.476562 3.765625 -7.875 C 4.035156 -8.269531 4.40625 -8.597656 4.875 -8.859375 C 5.351562 -9.128906 5.96875 -9.265625 6.71875 -9.265625 L 7.046875 -9.265625 L 7.046875 -6.6875 L 6.71875 -6.6875 C 5.425781 -6.6875 4.523438 -6.476562 4.015625 -6.0625 C 3.503906 -5.65625 3.25 -4.960938 3.25 -3.984375 L 3.25 0 Z M 0.953125 0 "/></g></g></g><g fill="#ffffff" fill-opacity="1"><g transform="translate(82.158471, 25.079655)"><g><path d="M -0.046875 4.296875 L -0.046875 2.53125 L 1.375 2.53125 C 1.601562 2.53125 1.796875 2.503906 1.953125 2.453125 C 2.117188 2.410156 2.285156 2.296875 2.453125 2.109375 C 2.617188 1.921875 2.804688 1.613281 3.015625 1.1875 L 3.625 -0.15625 L 0.015625 -9.265625 L 2.390625 -9.265625 L 4.75 -2.53125 L 7.296875 -9.265625 L 9.671875 -9.265625 L 5.109375 1.421875 C 4.753906 2.265625 4.425781 2.890625 4.125 3.296875 C 3.820312 3.710938 3.484375 3.984375 3.109375 4.109375 C 2.742188 4.234375 2.28125 4.296875 1.71875 4.296875 Z M -0.046875 4.296875 "/></g></g></g><g fill="#ffffff" fill-opacity="1"><g transform="translate(92.094519, 25.079655)"><g><path d="M 6.578125 0.21875 C 6.003906 0.21875 5.523438 0.132812 5.140625 -0.03125 C 4.765625 -0.207031 4.457031 -0.414062 4.21875 -0.65625 C 3.988281 -0.894531 3.816406 -1.109375 3.703125 -1.296875 C 3.585938 -1.492188 3.523438 -1.609375 3.515625 -1.640625 L 3.46875 -1.640625 L 3.46875 4.125 L 1.109375 4.125 L 1.109375 -9.265625 L 3.109375 -9.265625 L 3.5 -7.234375 L 3.53125 -7.234375 C 3.550781 -7.273438 3.609375 -7.398438 3.703125 -7.609375 C 3.804688 -7.828125 3.960938 -8.0625 4.171875 -8.3125 C 4.390625 -8.570312 4.691406 -8.796875 5.078125 -8.984375 C 5.472656 -9.171875 5.96875 -9.265625 6.5625 -9.265625 C 7.9375 -9.265625 8.925781 -8.820312 9.53125 -7.9375 C 10.132812 -7.050781 10.4375 -5.894531 10.4375 -4.46875 C 10.4375 -3.039062 10.125 -1.898438 9.5 -1.046875 C 8.882812 -0.203125 7.910156 0.21875 6.578125 0.21875 Z M 5.875 -1.71875 C 6.507812 -1.71875 6.992188 -1.847656 7.328125 -2.109375 C 7.671875 -2.367188 7.90625 -2.710938 8.03125 -3.140625 C 8.15625 -3.566406 8.21875 -4.015625 8.21875 -4.484375 C 8.21875 -4.953125 8.144531 -5.390625 8 -5.796875 C 7.863281 -6.210938 7.625 -6.550781 7.28125 -6.8125 C 6.9375 -7.070312 6.453125 -7.203125 5.828125 -7.203125 C 4.992188 -7.203125 4.394531 -6.941406 4.03125 -6.421875 C 3.675781 -5.910156 3.5 -5.265625 3.5 -4.484375 C 3.5 -3.671875 3.6875 -3.003906 4.0625 -2.484375 C 4.4375 -1.972656 5.039062 -1.71875 5.875 -1.71875 Z M 5.875 -1.71875 "/></g></g></g><g fill="#ffffff" fill-opacity="1"><g transform="translate(103.179631, 25.079655)"><g><path d="M 3.875 0 C 3.132812 0 2.582031 -0.175781 2.21875 -0.53125 C 1.851562 -0.894531 1.671875 -1.484375 1.671875 -2.296875 L 1.671875 -7.640625 L 0.265625 -7.640625 L 0.265625 -9.265625 C 0.703125 -9.265625 1.039062 -9.304688 1.28125 -9.390625 C 1.519531 -9.484375 1.691406 -9.691406 1.796875 -10.015625 C 1.898438 -10.347656 1.953125 -10.882812 1.953125 -11.625 L 3.8125 -11.625 L 3.8125 -9.265625 L 5.921875 -9.265625 L 5.921875 -7.640625 L 3.8125 -7.640625 L 3.8125 -1.796875 L 5.96875 -1.796875 L 5.96875 0 Z M 3.875 0 "/></g></g></g><g fill="#ffffff" fill-opacity="1"><g transform="translate(110.051497, 25.079655)"><g><path d="M 2.359375 -10.28125 C 1.867188 -10.257812 1.546875 -10.375 1.390625 -10.625 C 1.234375 -10.875 1.15625 -11.171875 1.15625 -11.515625 C 1.15625 -11.847656 1.234375 -12.132812 1.390625 -12.375 C 1.554688 -12.613281 1.878906 -12.734375 2.359375 -12.734375 C 2.828125 -12.734375 3.140625 -12.613281 3.296875 -12.375 C 3.453125 -12.132812 3.53125 -11.847656 3.53125 -11.515625 C 3.53125 -11.171875 3.453125 -10.878906 3.296875 -10.640625 C 3.140625 -10.410156 2.828125 -10.289062 2.359375 -10.28125 Z M 1.1875 0 L 1.1875 -9.265625 L 3.5 -9.265625 L 3.5 0 Z M 1.1875 0 "/></g></g></g><g fill="#ffffff" fill-opacity="1"><g transform="translate(114.715357, 25.079655)"><g><path d="M 5.296875 0.21875 C 4.421875 0.21875 3.628906 0.046875 2.921875 -0.296875 C 2.222656 -0.648438 1.660156 -1.175781 1.234375 -1.875 C 0.816406 -2.570312 0.609375 -3.425781 0.609375 -4.4375 C 0.640625 -5.445312 0.859375 -6.3125 1.265625 -7.03125 C 1.679688 -7.75 2.238281 -8.300781 2.9375 -8.6875 C 3.632812 -9.082031 4.4375 -9.28125 5.34375 -9.28125 C 6.257812 -9.28125 7.039062 -9.101562 7.6875 -8.75 C 8.34375 -8.394531 8.847656 -7.9375 9.203125 -7.375 C 9.566406 -6.8125 9.773438 -6.234375 9.828125 -5.640625 L 7.703125 -5.640625 C 7.484375 -6.742188 6.71875 -7.296875 5.40625 -7.296875 C 4.59375 -7.296875 3.960938 -7.046875 3.515625 -6.546875 C 3.078125 -6.054688 2.859375 -5.414062 2.859375 -4.625 C 2.859375 -3.75 3.070312 -3.050781 3.5 -2.53125 C 3.925781 -2.007812 4.5625 -1.75 5.40625 -1.75 C 5.976562 -1.75 6.476562 -1.898438 6.90625 -2.203125 C 7.332031 -2.503906 7.597656 -2.945312 7.703125 -3.53125 L 9.828125 -3.53125 C 9.773438 -2.882812 9.566406 -2.273438 9.203125 -1.703125 C 8.835938 -1.140625 8.328125 -0.675781 7.671875 -0.3125 C 7.015625 0.0390625 6.222656 0.21875 5.296875 0.21875 Z M 5.296875 0.21875 "/></g></g></g><g fill="#ffffff" fill-opacity="1"><g transform="translate(125.282262, 25.079655)"><g><path d="M 5.203125 0.21875 C 4.148438 0.21875 3.273438 0.0195312 2.578125 -0.375 C 1.890625 -0.78125 1.375 -1.335938 1.03125 -2.046875 C 0.6875 -2.765625 0.515625 -3.582031 0.515625 -4.5 C 0.503906 -5.882812 0.890625 -7.023438 1.671875 -7.921875 C 2.460938 -8.816406 3.640625 -9.265625 5.203125 -9.265625 C 6.722656 -9.265625 7.875 -8.828125 8.65625 -7.953125 C 9.445312 -7.078125 9.84375 -5.925781 9.84375 -4.5 C 9.84375 -3.613281 9.675781 -2.8125 9.34375 -2.09375 C 9.019531 -1.375 8.507812 -0.804688 7.8125 -0.390625 C 7.125 0.015625 6.253906 0.21875 5.203125 0.21875 Z M 5.203125 -1.71875 C 5.867188 -1.71875 6.375 -1.859375 6.71875 -2.140625 C 7.070312 -2.421875 7.304688 -2.78125 7.421875 -3.21875 C 7.546875 -3.664062 7.609375 -4.117188 7.609375 -4.578125 C 7.609375 -5.035156 7.546875 -5.488281 7.421875 -5.9375 C 7.304688 -6.394531 7.070312 -6.765625 6.71875 -7.046875 C 6.375 -7.335938 5.867188 -7.484375 5.203125 -7.484375 C 4.523438 -7.484375 4.007812 -7.335938 3.65625 -7.046875 C 3.300781 -6.753906 3.0625 -6.382812 2.9375 -5.9375 C 2.8125 -5.488281 2.75 -5.035156 2.75 -4.578125 C 2.75 -4.117188 2.8125 -3.664062 2.9375 -3.21875 C 3.0625 -2.78125 3.300781 -2.421875 3.65625 -2.140625 C 4.007812 -1.859375 4.523438 -1.71875 5.203125 -1.71875 Z M 5.203125 -1.71875 "/></g></g></g></svg>