<svg xmlns="http://www.w3.org/2000/svg" xmlns:xlink="http://www.w3.org/1999/xlink" width="500" zoomAndPan="magnify" viewBox="0 0 375 374.999991" height="500" preserveAspectRatio="xMidYMid meet" version="1.0"><defs><clipPath id="1921a92884"><path d="M 110.136719 96.484375 L 113.886719 96.484375 L 113.886719 100.234375 L 110.136719 100.234375 Z M 110.136719 96.484375 " clip-rule="nonzero"/></clipPath><clipPath id="2d86a3f502"><path d="M 112.011719 96.484375 C 113.046875 96.484375 113.886719 97.324219 113.886719 98.359375 C 113.886719 99.394531 113.046875 100.234375 112.011719 100.234375 C 110.972656 100.234375 110.136719 99.394531 110.136719 98.359375 C 110.136719 97.324219 110.972656 96.484375 112.011719 96.484375 Z M 112.011719 96.484375 " clip-rule="nonzero"/></clipPath><clipPath id="933f7b4532"><path d="M 222 128 L 363.019531 128 L 363.019531 246 L 222 246 Z M 222 128 " clip-rule="nonzero"/></clipPath><clipPath id="a295de7729"><path d="M 168 51.121094 L 286 51.121094 L 286 169 L 168 169 Z M 168 51.121094 " clip-rule="nonzero"/></clipPath><clipPath id="6a4c8ce126"><path d="M 90 51.121094 L 208 51.121094 L 208 169 L 90 169 Z M 90 51.121094 " clip-rule="nonzero"/></clipPath><clipPath id="a8308e2fb8"><path d="M 12.019531 128 L 133 128 L 133 246 L 12.019531 246 Z M 12.019531 128 " clip-rule="nonzero"/></clipPath></defs><g clip-path="url(#1921a92884)"><g clip-path="url(#2d86a3f502)"><path fill="#141827" d="M 110.136719 96.484375 L 113.886719 96.484375 L 113.886719 100.234375 L 110.136719 100.234375 Z M 110.136719 96.484375 " fill-opacity="1" fill-rule="nonzero"/></g></g><g clip-path="url(#933f7b4532)"><path fill="#ffffff" d="M 322.066406 187.300781 L 304.464844 169.699219 L 286.859375 187.300781 L 304.464844 204.902344 Z M 304.464844 128.75 C 305.496094 128.75 306.523438 129.140625 307.3125 129.925781 L 361.839844 184.453125 C 362.59375 185.210938 363.015625 186.234375 363.015625 187.300781 C 363.015625 188.371094 362.59375 189.394531 361.839844 190.152344 L 307.3125 244.675781 C 305.738281 246.25 303.1875 246.25 301.617188 244.675781 L 265.550781 208.613281 L 265.132812 209.03125 C 263.558594 210.601562 261.011719 210.601562 259.4375 209.03125 C 257.863281 207.457031 257.863281 204.90625 259.4375 203.332031 L 301.617188 161.152344 C 303.1875 159.582031 305.738281 159.582031 307.3125 161.152344 L 330.613281 184.453125 C 331.367188 185.210938 331.792969 186.234375 331.792969 187.300781 C 331.792969 188.371094 331.367188 189.394531 330.613281 190.152344 L 307.3125 213.449219 C 305.738281 215.023438 303.1875 215.023438 301.617188 213.449219 L 281.164062 193 L 271.246094 202.914062 L 304.464844 236.128906 L 353.292969 187.300781 L 304.464844 138.472656 L 229.5 213.441406 C 227.925781 215.011719 225.375 215.011719 223.800781 213.441406 C 222.230469 211.863281 222.230469 209.316406 223.800781 207.742188 L 301.617188 129.929688 C 302.402344 129.140625 303.433594 128.75 304.464844 128.75 " fill-opacity="1" fill-rule="nonzero"/></g><g clip-path="url(#a295de7729)"><path fill="#ffffff" d="M 187.746094 121.054688 C 188.777344 121.054688 189.808594 121.445312 190.59375 122.234375 L 229.503906 161.144531 C 231.074219 162.714844 231.074219 165.265625 229.503906 166.839844 C 227.929688 168.414062 225.378906 168.414062 223.804688 166.839844 L 184.898438 127.929688 C 183.324219 126.359375 183.324219 123.808594 184.898438 122.234375 C 185.683594 121.445312 186.714844 121.054688 187.746094 121.054688 Z M 244.257812 109.464844 L 226.652344 91.863281 L 209.050781 109.464844 L 226.652344 127.070312 Z M 226.652344 82.132812 C 227.722656 82.132812 228.746094 82.558594 229.503906 83.316406 L 252.800781 106.617188 C 254.375 108.191406 254.375 110.742188 252.800781 112.316406 L 229.503906 135.617188 C 227.992188 137.125 225.316406 137.125 223.804688 135.617188 L 200.503906 112.316406 C 198.933594 110.742188 198.933594 108.191406 200.503906 106.617188 L 223.804688 83.316406 C 224.5625 82.558594 225.585938 82.132812 226.652344 82.132812 Z M 226.652344 50.910156 C 227.722656 50.910156 228.746094 51.335938 229.503906 52.089844 L 284.023438 106.617188 C 285.597656 108.191406 285.597656 110.742188 284.027344 112.316406 L 245.136719 151.214844 C 243.5625 152.789062 241.011719 152.789062 239.4375 151.214844 C 237.863281 149.640625 237.863281 147.09375 239.4375 145.519531 L 275.480469 109.464844 L 226.652344 60.636719 L 174.972656 112.316406 C 173.402344 113.886719 170.851562 113.886719 169.28125 112.316406 C 167.703125 110.742188 167.703125 108.191406 169.28125 106.617188 L 223.804688 52.089844 C 224.5625 51.335938 225.585938 50.910156 226.652344 50.910156 " fill-opacity="1" fill-rule="nonzero"/></g><path fill="#ffffff" d="M 187.730469 198.867188 C 188.761719 198.867188 189.792969 199.261719 190.578125 200.046875 L 229.503906 238.976562 C 231.078125 240.546875 231.078125 243.097656 229.503906 244.671875 C 227.933594 246.246094 225.382812 246.246094 223.808594 244.671875 L 184.882812 205.742188 C 183.308594 204.167969 183.308594 201.617188 184.882812 200.046875 C 185.667969 199.261719 186.699219 198.867188 187.730469 198.867188 Z M 281.183594 183.269531 C 282.214844 183.269531 283.246094 183.664062 284.035156 184.449219 C 285.609375 186.023438 285.609375 188.574219 284.035156 190.148438 L 245.105469 229.074219 C 243.53125 230.648438 240.980469 230.648438 239.40625 229.074219 C 237.835938 227.5 237.835938 224.953125 239.40625 223.375 L 278.335938 184.449219 C 279.125 183.664062 280.15625 183.269531 281.183594 183.269531 Z M 244.261719 187.296875 L 226.65625 169.695312 L 209.054688 187.296875 L 226.65625 204.902344 Z M 226.65625 159.96875 C 227.6875 159.96875 228.71875 160.363281 229.503906 161.148438 L 252.808594 184.449219 C 253.5625 185.203125 253.988281 186.230469 253.988281 187.296875 C 253.988281 188.367188 253.5625 189.390625 252.808594 190.148438 L 229.503906 213.449219 C 227.933594 215.019531 225.382812 215.023438 223.808594 213.449219 L 200.511719 190.144531 C 198.9375 188.574219 198.9375 186.023438 200.511719 184.449219 L 223.808594 161.148438 C 224.597656 160.363281 225.625 159.96875 226.65625 159.96875 Z M 211.0625 144.339844 C 212.09375 144.339844 213.125 144.734375 213.910156 145.519531 C 215.484375 147.09375 215.484375 149.648438 213.910156 151.21875 L 174.984375 190.148438 C 173.410156 191.71875 170.859375 191.71875 169.285156 190.144531 C 167.710938 188.574219 167.710938 186.023438 169.285156 184.449219 L 208.214844 145.519531 C 209.003906 144.734375 210.03125 144.339844 211.0625 144.339844 Z M 226.65625 128.742188 C 227.6875 128.742188 228.71875 129.140625 229.503906 129.925781 L 268.402344 168.820312 C 269.976562 170.394531 269.976562 172.945312 268.402344 174.519531 C 266.832031 176.09375 264.28125 176.09375 262.707031 174.519531 L 223.808594 135.621094 C 222.234375 134.050781 222.234375 131.496094 223.808594 129.925781 C 224.597656 129.140625 225.625 128.742188 226.65625 128.742188 " fill-opacity="1" fill-rule="nonzero"/><path fill="#ffffff" d="M 226.65625 159.96875 C 227.6875 159.96875 228.71875 160.359375 229.503906 161.144531 C 231.078125 162.71875 231.078125 165.273438 229.503906 166.84375 L 190.609375 205.742188 C 189.035156 207.3125 186.488281 207.3125 184.914062 205.742188 C 183.339844 204.167969 183.339844 201.613281 184.914062 200.042969 L 223.808594 161.144531 C 224.597656 160.359375 225.625 159.96875 226.65625 159.96875 Z M 205.363281 148.367188 L 187.761719 130.765625 L 170.160156 148.367188 L 187.761719 165.96875 Z M 187.761719 121.039062 C 188.789062 121.039062 189.824219 121.433594 190.609375 122.21875 L 213.910156 145.519531 C 214.664062 146.273438 215.089844 147.296875 215.089844 148.367188 C 215.089844 149.4375 214.664062 150.460938 213.910156 151.214844 L 190.609375 174.515625 C 189.855469 175.273438 188.828125 175.695312 187.761719 175.695312 C 186.691406 175.695312 185.667969 175.273438 184.914062 174.515625 L 161.613281 151.214844 C 160.039062 149.640625 160.039062 147.089844 161.613281 145.519531 L 184.914062 122.21875 C 185.699219 121.433594 186.730469 121.039062 187.761719 121.039062 Z M 203.367188 105.421875 C 204.402344 105.421875 205.429688 105.816406 206.21875 106.601562 L 231.449219 131.828125 C 233.019531 133.402344 233.019531 135.953125 231.449219 137.527344 C 229.875 139.097656 227.324219 139.097656 225.75 137.527344 L 200.519531 112.300781 C 198.945312 110.726562 198.945312 108.175781 200.519531 106.601562 C 201.308594 105.816406 202.335938 105.421875 203.367188 105.421875 Z M 187.761719 89.8125 C 188.789062 89.8125 189.824219 90.207031 190.609375 90.996094 C 192.183594 92.566406 192.183594 95.117188 190.609375 96.691406 L 152.371094 134.929688 C 150.796875 136.5 148.25 136.503906 146.675781 134.929688 C 145.101562 133.355469 145.101562 130.804688 146.675781 129.230469 L 184.914062 90.996094 C 185.699219 90.207031 186.730469 89.8125 187.761719 89.8125 " fill-opacity="1" fill-rule="nonzero"/><g clip-path="url(#6a4c8ce126)"><path fill="#ffffff" d="M 166.441406 109.472656 L 148.835938 91.871094 L 131.230469 109.472656 L 148.835938 127.082031 Z M 148.835938 82.144531 C 149.867188 82.144531 150.898438 82.539062 151.683594 83.328125 L 174.984375 106.625 C 176.558594 108.199219 176.558594 110.746094 174.984375 112.320312 L 154.535156 132.777344 L 164.445312 142.6875 L 200.511719 106.625 C 202.085938 105.050781 204.636719 105.050781 206.207031 106.625 C 207.78125 108.199219 207.78125 110.746094 206.207031 112.320312 L 167.3125 151.21875 C 167.113281 151.421875 166.890625 151.59375 166.664062 151.746094 C 165.097656 152.78125 162.972656 152.609375 161.59375 151.234375 L 122.683594 112.320312 C 121.929688 111.566406 121.503906 110.542969 121.503906 109.472656 C 121.503906 108.40625 121.929688 107.378906 122.683594 106.625 L 145.988281 83.324219 C 146.773438 82.539062 147.804688 82.144531 148.835938 82.144531 Z M 148.835938 50.921875 C 149.867188 50.921875 150.898438 51.316406 151.683594 52.101562 L 190.59375 91.011719 C 192.167969 92.582031 192.167969 95.132812 190.59375 96.707031 C 189.019531 98.28125 186.46875 98.28125 184.898438 96.707031 L 148.835938 60.648438 L 100.007812 109.472656 L 151.683594 161.152344 C 153.257812 162.726562 153.257812 165.273438 151.683594 166.847656 C 150.113281 168.421875 147.5625 168.421875 145.988281 166.847656 L 91.460938 112.320312 C 90.703125 111.566406 90.28125 110.542969 90.28125 109.472656 C 90.28125 108.40625 90.703125 107.378906 91.460938 106.625 L 145.988281 52.101562 C 146.773438 51.316406 147.804688 50.921875 148.835938 50.921875 " fill-opacity="1" fill-rule="nonzero"/></g><path fill="#ffffff" d="M 187.730469 245.460938 C 188.761719 245.460938 189.792969 245.855469 190.578125 246.640625 C 192.152344 248.214844 192.152344 250.765625 190.578125 252.339844 L 174.949219 267.96875 C 173.378906 269.542969 170.828125 269.542969 169.253906 267.96875 C 167.679688 266.398438 167.679688 263.847656 169.253906 262.273438 L 184.882812 246.644531 C 185.667969 245.855469 186.699219 245.460938 187.730469 245.460938 Z M 244.230469 265.121094 L 226.625 247.519531 L 209.023438 265.121094 L 226.625 282.726562 Z M 226.625 237.789062 C 227.695312 237.789062 228.71875 238.214844 229.472656 238.972656 L 252.773438 262.273438 C 254.347656 263.847656 254.347656 266.398438 252.773438 267.96875 L 229.472656 291.273438 C 227.964844 292.78125 225.289062 292.78125 223.777344 291.273438 L 200.476562 267.96875 C 198.902344 266.398438 198.902344 263.847656 200.476562 262.273438 L 223.777344 238.972656 C 224.535156 238.214844 225.558594 237.789062 226.625 237.789062 Z M 226.625 206.566406 C 227.65625 206.566406 228.6875 206.960938 229.472656 207.746094 L 284 262.273438 C 284.753906 263.027344 285.179688 264.054688 285.179688 265.121094 C 285.179688 266.191406 284.753906 267.214844 284 267.96875 L 229.472656 322.496094 C 227.902344 324.066406 225.351562 324.066406 223.777344 322.496094 L 184.863281 283.582031 C 183.289062 282.007812 183.289062 279.457031 184.863281 277.882812 C 186.4375 276.3125 188.988281 276.3125 190.558594 277.882812 L 226.625 313.949219 L 275.453125 265.121094 L 223.777344 213.445312 C 222.203125 211.871094 222.203125 209.320312 223.777344 207.746094 C 224.566406 206.960938 225.59375 206.566406 226.625 206.566406 " fill-opacity="1" fill-rule="nonzero"/><path fill="#ffffff" d="M 226.640625 237.773438 C 227.671875 237.773438 228.703125 238.171875 229.488281 238.957031 C 231.0625 240.527344 231.0625 243.082031 229.488281 244.652344 L 190.578125 283.5625 C 189.003906 285.132812 186.453125 285.132812 184.882812 283.5625 C 183.308594 281.988281 183.308594 279.4375 184.882812 277.863281 L 223.792969 238.953125 C 224.578125 238.171875 225.609375 237.773438 226.640625 237.773438 Z M 205.332031 226.191406 L 187.730469 208.585938 L 170.128906 226.191406 L 187.730469 243.792969 Z M 187.730469 198.863281 C 188.761719 198.863281 189.792969 199.253906 190.578125 200.039062 L 213.878906 223.34375 C 215.453125 224.914062 215.453125 227.464844 213.878906 229.039062 L 190.578125 252.339844 C 189.070312 253.851562 186.394531 253.851562 184.882812 252.339844 L 161.582031 229.039062 C 160.007812 227.464844 160.007812 224.914062 161.582031 223.34375 L 184.882812 200.039062 C 185.667969 199.253906 186.699219 198.863281 187.730469 198.863281 " fill-opacity="1" fill-rule="nonzero"/><path fill="#ffffff" d="M 109.820312 198.808594 C 110.855469 198.808594 111.882812 199.203125 112.671875 199.992188 L 151.652344 238.972656 C 153.226562 240.546875 153.226562 243.097656 151.652344 244.671875 C 150.078125 246.242188 147.53125 246.246094 145.957031 244.671875 L 106.972656 205.6875 C 105.402344 204.117188 105.402344 201.5625 106.972656 199.992188 C 107.761719 199.203125 108.792969 198.808594 109.820312 198.808594 Z M 166.40625 187.296875 L 148.804688 169.691406 L 131.199219 187.296875 L 148.804688 204.902344 Z M 148.804688 159.96875 C 149.835938 159.96875 150.867188 160.359375 151.652344 161.144531 L 174.953125 184.449219 C 176.527344 186.023438 176.527344 188.570312 174.953125 190.144531 L 151.652344 213.445312 C 150.140625 214.957031 147.464844 214.957031 145.957031 213.449219 L 122.652344 190.144531 C 121.898438 189.390625 121.472656 188.363281 121.472656 187.296875 C 121.472656 186.226562 121.898438 185.203125 122.652344 184.449219 L 145.957031 161.144531 C 146.742188 160.359375 147.773438 159.96875 148.804688 159.96875 Z M 133.222656 144.324219 C 134.253906 144.324219 135.285156 144.714844 136.070312 145.5 C 137.644531 147.078125 137.644531 149.628906 136.070312 151.199219 L 97.125 190.144531 C 95.550781 191.71875 93.003906 191.71875 91.429688 190.144531 C 89.855469 188.570312 89.855469 186.019531 91.429688 184.449219 L 130.375 145.5 C 131.160156 144.714844 132.191406 144.324219 133.222656 144.324219 Z M 148.804688 128.742188 C 149.835938 128.742188 150.867188 129.136719 151.652344 129.921875 L 190.578125 168.851562 C 192.152344 170.425781 192.152344 172.976562 190.578125 174.550781 C 189.003906 176.117188 186.453125 176.121094 184.882812 174.546875 L 145.957031 135.617188 C 144.382812 134.046875 144.382812 131.496094 145.957031 129.921875 C 146.742188 129.136719 147.773438 128.742188 148.804688 128.742188 " fill-opacity="1" fill-rule="nonzero"/><path fill="#ffffff" d="M 166.351562 265.035156 L 148.75 247.429688 L 131.144531 265.035156 L 148.75 282.636719 Z M 148.75 237.703125 C 149.820312 237.703125 150.84375 238.128906 151.597656 238.882812 L 174.898438 262.183594 C 176.472656 263.757812 176.472656 266.308594 174.898438 267.878906 L 151.597656 291.183594 C 150.085938 292.695312 147.410156 292.695312 145.902344 291.183594 L 122.601562 267.878906 C 121.027344 266.308594 121.027344 263.757812 122.601562 262.183594 L 145.902344 238.882812 C 146.65625 238.128906 147.679688 237.703125 148.75 237.703125 Z M 133.136719 222.09375 C 134.167969 222.09375 135.199219 222.484375 135.984375 223.273438 C 137.558594 224.847656 137.558594 227.394531 135.984375 228.96875 L 99.921875 265.035156 L 148.75 313.863281 L 200.425781 262.183594 C 202 260.609375 204.546875 260.609375 206.121094 262.183594 C 207.695312 263.757812 207.695312 266.308594 206.121094 267.878906 L 151.597656 322.410156 C 150.085938 323.917969 147.410156 323.917969 145.902344 322.410156 L 91.375 267.878906 C 90.621094 267.128906 90.195312 266.101562 90.195312 265.035156 C 90.195312 263.964844 90.621094 262.9375 91.375 262.183594 L 130.289062 223.273438 C 131.074219 222.484375 132.105469 222.09375 133.136719 222.09375 Z M 148.75 206.480469 C 149.78125 206.480469 150.8125 206.875 151.597656 207.660156 L 190.582031 246.644531 C 192.15625 248.214844 192.15625 250.765625 190.582031 252.339844 C 189.007812 253.910156 186.457031 253.910156 184.882812 252.339844 L 145.902344 213.359375 C 144.328125 211.785156 144.328125 209.234375 145.902344 207.660156 C 146.6875 206.875 147.71875 206.480469 148.75 206.480469 " fill-opacity="1" fill-rule="nonzero"/><g clip-path="url(#a8308e2fb8)"><path fill="#ffffff" d="M 88.53125 187.207031 L 70.925781 169.605469 L 53.324219 187.207031 L 70.925781 204.8125 Z M 70.925781 159.878906 C 71.957031 159.878906 72.992188 160.273438 73.777344 161.058594 L 97.078125 184.359375 C 97.832031 185.113281 98.257812 186.140625 98.257812 187.207031 C 98.257812 188.277344 97.832031 189.300781 97.078125 190.054688 L 73.777344 213.355469 C 72.199219 214.929688 69.652344 214.929688 68.082031 213.355469 L 44.777344 190.054688 C 43.207031 188.484375 43.207031 185.933594 44.777344 184.359375 L 68.082031 161.058594 C 68.863281 160.273438 69.898438 159.878906 70.925781 159.878906 Z M 70.925781 128.652344 C 71.957031 128.652344 72.992188 129.046875 73.777344 129.835938 L 112.757812 168.816406 C 114.328125 170.390625 114.328125 172.941406 112.757812 174.515625 C 111.183594 176.085938 108.636719 176.085938 107.0625 174.515625 L 70.925781 138.382812 L 22.097656 187.207031 L 70.925781 236.035156 L 125.734375 181.226562 C 127.3125 179.65625 129.855469 179.65625 131.429688 181.230469 C 133.003906 182.800781 133.003906 185.351562 131.429688 186.925781 L 73.777344 244.582031 C 73.019531 245.335938 71.996094 245.757812 70.925781 245.757812 C 69.855469 245.757812 68.832031 245.335938 68.082031 244.582031 L 13.554688 190.054688 C 11.980469 188.484375 11.980469 185.933594 13.554688 184.359375 L 68.082031 129.835938 C 68.863281 129.046875 69.898438 128.652344 70.925781 128.652344 " fill-opacity="1" fill-rule="nonzero"/></g></svg>